<mxfile host="app.diagrams.net" agent="Mozilla/5.0 (Windows NT 10.0; Win64; x64) AppleWebKit/537.36 (KHTML, like Gecko) Chrome/136.0.0.0 Safari/537.36" version="26.2.14">
  <diagram name="Página-1" id="i3NA5asQegAyuX9pRSrH">
    <mxGraphModel dx="1852" dy="755" grid="1" gridSize="10" guides="1" tooltips="1" connect="1" arrows="1" fold="1" page="1" pageScale="1" pageWidth="827" pageHeight="1169" math="0" shadow="0">
      <root>
        <mxCell id="0" />
        <mxCell id="1" parent="0" />
        <mxCell id="SazSgZ5tJ-FWsbGqIdro-13" value="" style="rounded=1;whiteSpace=wrap;html=1;" vertex="1" parent="1">
          <mxGeometry x="-130" y="250" width="1150" height="500" as="geometry" />
        </mxCell>
        <mxCell id="SazSgZ5tJ-FWsbGqIdro-1" value="" style="rounded=1;whiteSpace=wrap;html=1;fillColor=#1ba1e2;fontColor=#ffffff;strokeColor=#006EAF;" vertex="1" parent="1">
          <mxGeometry x="59" y="360" width="710" height="60" as="geometry" />
        </mxCell>
        <mxCell id="SazSgZ5tJ-FWsbGqIdro-2" value="" style="rounded=1;whiteSpace=wrap;html=1;fillColor=#1ba1e2;fontColor=#ffffff;strokeColor=#006EAF;" vertex="1" parent="1">
          <mxGeometry x="59" y="584.5" width="710" height="60" as="geometry" />
        </mxCell>
        <mxCell id="SazSgZ5tJ-FWsbGqIdro-3" value="" style="rounded=1;whiteSpace=wrap;html=1;fillColor=#1ba1e2;fontColor=#ffffff;strokeColor=#006EAF;" vertex="1" parent="1">
          <mxGeometry x="59" y="470" width="710" height="60" as="geometry" />
        </mxCell>
        <mxCell id="SazSgZ5tJ-FWsbGqIdro-4" value="Bloquear Aplicativo(s)" style="ellipse;whiteSpace=wrap;html=1;" vertex="1" parent="1">
          <mxGeometry x="100" y="350" width="120" height="80" as="geometry" />
        </mxCell>
        <mxCell id="SazSgZ5tJ-FWsbGqIdro-5" value="Limitar Aplicativo(s)" style="ellipse;whiteSpace=wrap;html=1;" vertex="1" parent="1">
          <mxGeometry x="354" y="350" width="120" height="80" as="geometry" />
        </mxCell>
        <mxCell id="SazSgZ5tJ-FWsbGqIdro-6" value="Visualizar relatórios de uso" style="ellipse;whiteSpace=wrap;html=1;" vertex="1" parent="1">
          <mxGeometry x="600" y="350" width="120" height="80" as="geometry" />
        </mxCell>
        <mxCell id="SazSgZ5tJ-FWsbGqIdro-7" value="Ativar modo de controle parental&lt;span style=&quot;color: rgba(0, 0, 0, 0); font-family: monospace; font-size: 0px; text-align: start; text-wrap-mode: nowrap;&quot;&gt;%3CmxGraphModel%3E%3Croot%3E%3CmxCell%20id%3D%220%22%2F%3E%3CmxCell%20id%3D%221%22%20parent%3D%220%22%2F%3E%3CmxCell%20id%3D%222%22%20value%3D%22Visualizar%20relat%C3%B3rios%20de%20uso%22%20style%3D%22ellipse%3BwhiteSpace%3Dwrap%3Bhtml%3D1%3B%22%20vertex%3D%221%22%20parent%3D%221%22%3E%3CmxGeometry%20x%3D%22600%22%20y%3D%22350%22%20width%3D%22120%22%20height%3D%2280%22%20as%3D%22geometry%22%2F%3E%3C%2FmxCell%3E%3C%2Froot%3E%3C%2FmxGraphModel%3E&lt;/span&gt;" style="ellipse;whiteSpace=wrap;html=1;" vertex="1" parent="1">
          <mxGeometry x="354" y="460" width="120" height="80" as="geometry" />
        </mxCell>
        <mxCell id="SazSgZ5tJ-FWsbGqIdro-8" value="Notificar tempo de uso de app" style="ellipse;whiteSpace=wrap;html=1;" vertex="1" parent="1">
          <mxGeometry x="100" y="574.5" width="120" height="80" as="geometry" />
        </mxCell>
        <mxCell id="SazSgZ5tJ-FWsbGqIdro-9" value="Ativar modo de emergência" style="ellipse;whiteSpace=wrap;html=1;" vertex="1" parent="1">
          <mxGeometry x="600" y="574.5" width="120" height="80" as="geometry" />
        </mxCell>
        <mxCell id="SazSgZ5tJ-FWsbGqIdro-10" value="Camada de serviço - tarefa" style="text;html=1;align=center;verticalAlign=middle;whiteSpace=wrap;rounded=0;" vertex="1" parent="1">
          <mxGeometry x="780" y="375" width="160" height="30" as="geometry" />
        </mxCell>
        <mxCell id="SazSgZ5tJ-FWsbGqIdro-11" value="Camada de serviço - entidade" style="text;html=1;align=center;verticalAlign=middle;whiteSpace=wrap;rounded=0;" vertex="1" parent="1">
          <mxGeometry x="769" y="485" width="190" height="30" as="geometry" />
        </mxCell>
        <mxCell id="SazSgZ5tJ-FWsbGqIdro-12" value="Camada de serviço - utilitário" style="text;html=1;align=center;verticalAlign=middle;whiteSpace=wrap;rounded=0;" vertex="1" parent="1">
          <mxGeometry x="780" y="599.5" width="160" height="30" as="geometry" />
        </mxCell>
      </root>
    </mxGraphModel>
  </diagram>
</mxfile>
